<?xml version="1.0" encoding="utf-8"?>
<!-- Generator: Adobe Illustrator 23.0.3, SVG Export Plug-In . SVG Version: 6.00 Build 0)  -->
<svg version="1.1" id="Layer_1" xmlns="http://www.w3.org/2000/svg" xmlns:xlink="http://www.w3.org/1999/xlink" x="0px" y="0px"
	 viewBox="0 0 64 64" style="enable-background:new 0 0 64 64;" xml:space="preserve">
<style type="text/css">
	.st0{fill:#536897;}
	.st1{fill:#C3D6F9;}
	.st2{opacity:0.14;fill:#000064;enable-background:new    ;}
	.st3{opacity:0.25;fill:#FFFFFF;enable-background:new    ;}
	.st4{fill:none;stroke:#2E4369;stroke-width:2;stroke-linecap:round;stroke-linejoin:round;}
</style>
<title>Pro Laptop</title>
<desc>A color styled icon from Orion Icon Library.</desc>
<path class="st0" d="M6,47V13c0-1.1,0.9-2,2-2h48c1.1,0,2,0.9,2,2v34"/>
<path class="st1" d="M38,45v2H26v-2H2v6c0,1.1,0.9,2,2,2h56c1.1,0,2-0.9,2-2v-6H38z"/>
<path class="st2" d="M60,50H4c-1.1,0-2-0.9-2-2v3c0,1.1,0.9,2,2,2h56c1.1,0,2-0.9,2-2v-3C62,49.1,61.1,50,60,50z"/>
<path class="st3" d="M51,15L23.5,42.8L23.3,43H46l8-8V15H51z M35,15L10,39.6V43h7l28.4-28H35z"/>
<path class="st4" d="M6,45V13c0-1.1,0.9-2,2-2h48c1.1,0,2,0.9,2,2v32 M38,45v2H26v-2H2v6c0,1.1,0.9,2,2,2h56c1.1,0,2-0.9,2-2v-6H38z
	"/>
</svg>
