<?xml version="1.0" encoding="utf-8"?>
<!-- Generator: Adobe Illustrator 23.0.3, SVG Export Plug-In . SVG Version: 6.00 Build 0)  -->
<svg version="1.1" id="Layer_1" xmlns="http://www.w3.org/2000/svg" xmlns:xlink="http://www.w3.org/1999/xlink" x="0px" y="0px"
	 viewBox="0 0 64 64" style="enable-background:new 0 0 64 64;" xml:space="preserve">
<style type="text/css">
	.st0{fill:#8CA0C8;}
	.st1{opacity:0.14;fill:#000064;enable-background:new    ;}
	.st2{opacity:0.25;fill:#FFFFFF;enable-background:new    ;}
	.st3{fill:#A0D6EF;}
	.st4{fill:#2E4369;}
	.st5{fill:none;stroke:#2E4369;stroke-width:2;stroke-linecap:round;stroke-linejoin:round;stroke-miterlimit:10;}
</style>
<title>Fax</title>
<desc>A color styled icon from Orion Icon Library.</desc>
<path class="st0" d="M6,10h10c2.2,0,4,1.8,4,4v44c0,2.2-1.8,4-4,4H6c-2.2,0-4-1.8-4-4V14C2,11.8,3.8,10,6,10z"/>
<path class="st0" d="M58,18H20v40c0,2.2-1.8,4-4,4h42c2.2,0,4-1.8,4-4V22C62,19.8,60.2,18,58,18z"/>
<path class="st1" d="M25,58V18h-5v40c0,2.2-1.8,4-4,4h5C23.2,62,25,60.2,25,58z"/>
<path class="st1" d="M6,58V14c0-2.2,1.8-4,4-4H6c-2.2,0-4,1.8-4,4v44c0,2.2,1.8,4,4,4h4C7.8,62,6,60.2,6,58z"/>
<path class="st2" d="M16,10h-2.8c2.1,0.1,3.8,1.9,3.8,4v44c0,2.2-1.8,4-4,4h3c2.2,0,4-1.8,4-4V14C20,11.8,18.2,10,16,10z"/>
<path class="st3" d="M30,24h22v8H30V24z"/>
<circle class="st4" cx="33" cy="39" r="1"/>
<circle class="st4" cx="41" cy="39" r="1"/>
<circle class="st4" cx="49" cy="39" r="1"/>
<circle class="st4" cx="33" cy="47" r="1"/>
<circle class="st4" cx="41" cy="47" r="1"/>
<circle class="st4" cx="49" cy="47" r="1"/>
<circle class="st4" cx="33" cy="55" r="1"/>
<circle class="st4" cx="41" cy="55" r="1"/>
<circle class="st4" cx="49" cy="55" r="1"/>
<path class="st2" d="M52,24H40l8,8h4V24z"/>
<path class="st5" d="M6,10h10c2.2,0,4,1.8,4,4v44c0,2.2-1.8,4-4,4H6c-2.2,0-4-1.8-4-4V14C2,11.8,3.8,10,6,10z"/>
<path class="st5" d="M8,2v8 M17,62h41c2.2,0,4-1.8,4-4V22c0-2.2-1.8-4-4-4H20"/>
<path class="st5" d="M30,24h22v8H30V24z"/>
<circle class="st5" cx="33" cy="39" r="1"/>
<circle class="st5" cx="41" cy="39" r="1"/>
<circle class="st5" cx="49" cy="39" r="1"/>
<circle class="st5" cx="33" cy="47" r="1"/>
<circle class="st5" cx="41" cy="47" r="1"/>
<circle class="st5" cx="49" cy="47" r="1"/>
<circle class="st5" cx="33" cy="55" r="1"/>
<circle class="st5" cx="41" cy="55" r="1"/>
<circle class="st5" cx="49" cy="55" r="1"/>
</svg>
